<svg width="25" height="25" viewBox="0 0 25 25" fill="none" xmlns="http://www.w3.org/2000/svg">
<mask id="mask0_109_77" style="mask-type:alpha" maskUnits="userSpaceOnUse" x="0" y="0" width="25" height="25">
<rect x="0.241211" y="0.932129" width="24" height="24" fill="#D9D9D9"/>
</mask>
<g mask="url(#mask0_109_77)">
<path d="M15.1758 17.1552L11.7412 13.7206V8.8552H12.7412V13.3187L15.8643 16.4418L15.1758 17.1552ZM11.7412 6.93213V4.93213H12.7412V6.93213H11.7412ZM18.2412 13.4321V12.4321H20.2412V13.4321H18.2412ZM11.7412 20.9321V18.9321H12.7412V20.9321H11.7412ZM4.24121 13.4321V12.4321H6.24121V13.4321H4.24121ZM12.2446 21.9321C11 21.9321 9.82993 21.696 8.73431 21.2237C7.63869 20.7513 6.68565 20.1103 5.87519 19.3006C5.06474 18.4909 4.42313 17.5388 3.95036 16.4442C3.47759 15.3496 3.24121 14.18 3.24121 12.9355C3.24121 11.6909 3.47737 10.5208 3.94969 9.42523C4.42202 8.32961 5.06304 7.37657 5.87274 6.5661C6.68244 5.75565 7.63458 5.11405 8.72916 4.64128C9.82376 4.16851 10.9933 3.93213 12.2379 3.93213C13.4824 3.93213 14.6525 4.16829 15.7481 4.6406C16.8437 5.11294 17.7968 5.75395 18.6072 6.56365C19.4177 7.37335 20.0593 8.3255 20.5321 9.42008C21.0048 10.5147 21.2412 11.6842 21.2412 12.9288C21.2412 14.1733 21.0051 15.3434 20.5327 16.439C20.0604 17.5346 19.4194 18.4877 18.6097 19.2982C17.8 20.1086 16.8478 20.7502 15.7533 21.223C14.6587 21.6957 13.4891 21.9321 12.2446 21.9321ZM12.2412 20.9321C14.4745 20.9321 16.3662 20.1571 17.9162 18.6071C19.4662 17.0571 20.2412 15.1655 20.2412 12.9321C20.2412 10.6988 19.4662 8.80713 17.9162 7.25713C16.3662 5.70713 14.4745 4.93213 12.2412 4.93213C10.0079 4.93213 8.11621 5.70713 6.56621 7.25713C5.01621 8.80713 4.24121 10.6988 4.24121 12.9321C4.24121 15.1655 5.01621 17.0571 6.56621 18.6071C8.11621 20.1571 10.0079 20.9321 12.2412 20.9321Z" fill="black"/>
</g>
</svg>
