<svg width="25" height="25" viewBox="0 0 25 25" fill="none" xmlns="http://www.w3.org/2000/svg">
<mask id="mask0_109_134" style="mask-type:alpha" maskUnits="userSpaceOnUse" x="0" y="0" width="25" height="25">
<rect x="0.233887" y="0.932129" width="24" height="24" fill="#D9D9D9"/>
</mask>
<g mask="url(#mask0_109_134)">
<path d="M7.73389 22.4321V13.3975C6.9608 13.2796 6.30599 12.9251 5.76946 12.3341C5.23293 11.743 4.96466 11.0193 4.96466 10.1629V3.43213H5.96466V10.1629H7.73389V3.43213H8.73389V10.1629H10.5031V3.43213H11.5031V10.1629C11.5031 11.0193 11.2348 11.743 10.6983 12.3341C10.1618 12.9251 9.50697 13.2796 8.73389 13.3975V22.4321H7.73389ZM16.9647 22.4321V14.4321H14.5031V7.93213C14.5031 6.81803 14.8175 5.83117 15.4464 4.97155C16.0752 4.11194 16.9147 3.61161 17.9647 3.47058V22.4321H16.9647Z" fill="black"/>
</g>
</svg>
