<svg width="364" height="69" viewBox="0 0 364 69" fill="none" xmlns="http://www.w3.org/2000/svg">
<path d="M363.055 57L360.168 54.1132L357.281 57L360.168 59.8868L363.055 57ZM284 57.5L360.168 57.5V56.5L284 56.5V57.5Z" fill="white"/>
<path d="M0.113249 57L3 59.8868L5.88675 57L3 54.1132L0.113249 57ZM3 57.5L80.2883 57.5V56.5L3 56.5V57.5Z" fill="white"/>
<path d="M109.56 46.552C109.699 46.552 109.843 46.5573 109.992 46.568V46.728C108.733 46.824 107.827 47.4213 107.272 48.52C106.909 49.2347 106.728 50.1413 106.728 51.24V56.952C106.707 58.296 106.275 59.3467 105.432 60.104C104.589 60.8507 103.384 61.224 101.816 61.224C100.259 61.224 99.016 60.84 98.088 60.072C97.16 59.2933 96.7013 58.2587 96.712 56.968V50.744C96.712 50.52 96.6267 50.3333 96.456 50.184C96.296 50.0347 96.0987 49.96 95.864 49.96H95.608V49.8H100.216V49.96H99.96C99.6293 49.96 99.384 50.088 99.224 50.344C99.1493 50.4613 99.112 50.5893 99.112 50.728V56.84C99.112 57.9707 99.4053 58.8667 99.992 59.528C100.579 60.1893 101.352 60.52 102.312 60.52C102.323 60.52 102.328 60.52 102.328 60.52C102.328 60.52 102.333 60.52 102.344 60.52C103.293 60.52 104.072 60.2107 104.68 59.592C105.288 58.9733 105.592 58.1253 105.592 57.048V51.24C105.592 49.8 105.971 48.6587 106.728 47.816C107.496 46.9733 108.44 46.552 109.56 46.552ZM109.068 60.84C109.345 60.84 109.58 60.744 109.772 60.552C109.974 60.3493 110.081 60.1093 110.092 59.832V50.952C110.081 50.568 109.905 50.28 109.564 50.088C109.414 50.0027 109.249 49.96 109.068 49.96H108.86V49.8H113.724L113.708 49.96H113.516C113.132 49.96 112.838 50.1253 112.636 50.456C112.54 50.6053 112.492 50.7707 112.492 50.952V59.832C112.492 60.1093 112.593 60.3493 112.796 60.552C112.998 60.744 113.238 60.84 113.516 60.84H113.708L113.724 61H108.86V60.84H109.068ZM120.62 61H119.308C117.686 61 116.54 60.5573 115.868 59.672C113.958 57.08 113.004 55.7627 113.004 55.72L116.796 50.696C116.881 50.5893 116.924 50.4933 116.924 50.408C116.924 50.3227 116.908 50.248 116.876 50.184C116.79 50.024 116.641 49.944 116.428 49.944H116.267V49.8H119.932V49.944H119.868C119.153 49.944 118.572 50.2 118.124 50.712L115.004 54.408L118.988 59.848C119.478 60.488 120.022 60.8187 120.62 60.84V61ZM125.369 50.504H124.681C124.66 50.504 124.644 50.504 124.633 50.504V59.832C124.644 60.2267 124.815 60.52 125.145 60.712C125.305 60.7973 125.476 60.84 125.657 60.84H125.865V61H121.001V60.84H121.209C121.593 60.84 121.887 60.6747 122.089 60.344C122.175 60.1947 122.223 60.0293 122.233 59.848V50.968C122.223 50.6907 122.116 50.456 121.913 50.264C121.721 50.0613 121.487 49.96 121.209 49.96H121.001V49.8H126.489C127.524 49.8 128.399 50.024 129.113 50.472C129.476 50.696 129.764 51.0107 129.977 51.416C130.191 51.8107 130.297 52.264 130.297 52.776C130.297 53.2773 130.207 53.7413 130.025 54.168C129.855 54.5947 129.561 54.968 129.145 55.288C128.74 55.608 128.249 55.8 127.673 55.864C128.292 56.0667 128.836 56.536 129.305 57.272C130.457 59.1173 131.311 60.216 131.865 60.568C132.143 60.7387 132.489 60.8293 132.905 60.84V61H131.337C130.431 61 129.673 60.8773 129.065 60.632C128.457 60.376 127.961 59.944 127.577 59.336C127.385 59.0267 127.14 58.5627 126.841 57.944C126.543 57.3147 126.345 56.8667 126.249 56.6C125.961 55.96 125.599 55.6027 125.161 55.528V55.368H125.657C126.137 55.368 126.559 55.224 126.921 54.936C127.295 54.648 127.545 54.1787 127.673 53.528C127.716 53.304 127.737 53.128 127.737 53C127.737 52.1253 127.561 51.496 127.209 51.112C126.857 50.7173 126.404 50.5147 125.849 50.504C125.743 50.504 125.583 50.504 125.369 50.504ZM143.839 60.84H143.983V61H138.879V60.84H139.023C139.258 60.84 139.429 60.7707 139.535 60.632C139.653 60.4827 139.711 60.344 139.711 60.216C139.711 60.088 139.685 59.96 139.631 59.832L138.847 57.864H135.103L134.271 59.832C134.218 59.9707 134.191 60.104 134.191 60.232C134.191 60.3493 134.245 60.4827 134.351 60.632C134.469 60.7707 134.65 60.84 134.895 60.84H135.023V61H131.599V60.84H131.743C131.989 60.84 132.234 60.7653 132.479 60.616C132.725 60.4667 132.927 60.2427 133.087 59.944L136.783 51.576C137.285 50.52 137.551 49.8213 137.583 49.48H137.727L142.479 59.912C142.639 60.2213 142.842 60.456 143.087 60.616C143.333 60.7653 143.583 60.84 143.839 60.84ZM135.375 57.192H138.575L137.023 53.256L135.375 57.192ZM144.364 60.84C144.642 60.84 144.876 60.744 145.068 60.552C145.271 60.3493 145.378 60.1093 145.388 59.832V50.952C145.378 50.6747 145.271 50.44 145.068 50.248C144.876 50.056 144.642 49.96 144.364 49.96H144.156V49.8H149.02L149.004 49.96H148.812C148.535 49.96 148.295 50.056 148.092 50.248C147.89 50.44 147.788 50.6747 147.788 50.952V59.832C147.788 60.1093 147.89 60.3493 148.092 60.552C148.295 60.744 148.535 60.84 148.812 60.84H149.004L149.02 61H144.156V60.84H144.364ZM162.728 49.96C162.462 49.96 162.232 50.056 162.04 50.248C161.848 50.4293 161.747 50.6533 161.736 50.92V59.176C161.736 59.8907 161.784 60.4933 161.88 60.984L161.928 61.224H161.784L153.704 53.528V59.88C153.704 60.1467 153.8 60.376 153.992 60.568C154.184 60.7493 154.414 60.84 154.68 60.84H154.984V61H150.136V60.84H150.424C150.702 60.84 150.936 60.7493 151.128 60.568C151.32 60.376 151.416 60.1413 151.416 59.864V51.56C151.416 50.856 151.368 50.2693 151.272 49.8L151.24 49.56H151.384L159.464 57.256V50.936C159.454 50.6587 159.352 50.4293 159.16 50.248C158.968 50.056 158.739 49.96 158.472 49.96H158.184V49.8H163.032V49.96H162.728ZM164.13 60.84C164.407 60.84 164.642 60.744 164.834 60.552C165.037 60.3493 165.143 60.1093 165.154 59.832V50.952C165.143 50.6747 165.037 50.44 164.834 50.248C164.642 50.056 164.407 49.96 164.13 49.96H163.922V49.8H168.786L168.77 49.96H168.578C168.301 49.96 168.061 50.056 167.858 50.248C167.655 50.44 167.554 50.6747 167.554 50.952V59.832C167.554 60.1093 167.655 60.3493 167.858 60.552C168.061 60.744 168.301 60.84 168.578 60.84H168.77L168.786 61H163.922V60.84H164.13ZM180.949 60.84H181.093V61H175.989V60.84H176.133C176.367 60.84 176.538 60.7707 176.645 60.632C176.762 60.4827 176.821 60.344 176.821 60.216C176.821 60.088 176.794 59.96 176.741 59.832L175.957 57.864H172.213L171.381 59.832C171.327 59.9707 171.301 60.104 171.301 60.232C171.301 60.3493 171.354 60.4827 171.461 60.632C171.578 60.7707 171.759 60.84 172.005 60.84H172.133V61H168.709V60.84H168.853C169.098 60.84 169.343 60.7653 169.589 60.616C169.834 60.4667 170.037 60.2427 170.197 59.944L173.893 51.576C174.394 50.52 174.661 49.8213 174.693 49.48H174.837L179.589 59.912C179.749 60.2213 179.951 60.456 180.197 60.616C180.442 60.7653 180.693 60.84 180.949 60.84ZM172.485 57.192H175.685L174.133 53.256L172.485 57.192ZM193.666 49.96C193.399 49.96 193.17 50.056 192.978 50.248C192.786 50.4293 192.684 50.6533 192.674 50.92V59.176C192.674 59.8907 192.722 60.4933 192.818 60.984L192.866 61.224H192.722L184.642 53.528V59.88C184.642 60.1467 184.738 60.376 184.93 60.568C185.122 60.7493 185.351 60.84 185.618 60.84H185.922V61H181.074V60.84H181.362C181.639 60.84 181.874 60.7493 182.066 60.568C182.258 60.376 182.354 60.1413 182.354 59.864V51.56C182.354 50.856 182.306 50.2693 182.21 49.8L182.178 49.56H182.322L190.402 57.256V50.936C190.391 50.6587 190.29 50.4293 190.098 50.248C189.906 50.056 189.676 49.96 189.41 49.96H189.122V49.8H193.97V49.96H193.666ZM205.766 61.208C203.707 61.208 202.091 60.6907 200.918 59.656C199.744 58.6213 199.158 57.2027 199.158 55.4C199.158 53.5973 199.739 52.1787 200.902 51.144C202.064 50.0987 203.659 49.576 205.686 49.576C207.232 49.576 208.56 49.864 209.67 50.44L209.702 53.192H209.574C209.03 51.2293 207.787 50.248 205.846 50.248C204.587 50.248 203.59 50.7067 202.854 51.624C202.128 52.5307 201.766 53.7733 201.766 55.352C201.766 56.9307 202.112 58.184 202.806 59.112C203.51 60.04 204.459 60.52 205.654 60.552C206.891 60.552 207.835 60.2427 208.486 59.624C209.147 58.984 209.606 57.8853 209.862 56.328H209.99L210.15 59.08C209.286 60.5093 207.824 61.2187 205.766 61.208ZM223.562 49.96H223.29C223.066 49.96 222.869 50.0347 222.698 50.184C222.538 50.3227 222.458 50.4987 222.458 50.712V56.952C222.458 58.264 222.047 59.304 221.226 60.072C220.405 60.84 219.279 61.224 217.85 61.224C216.165 61.224 214.874 60.8507 213.978 60.104C213.082 59.3467 212.634 58.3013 212.634 56.968V50.76C212.634 50.5253 212.549 50.3333 212.378 50.184C212.218 50.0347 212.021 49.96 211.786 49.96H211.53V49.8H216.138V49.96H215.882C215.647 49.96 215.45 50.0347 215.29 50.184C215.13 50.3227 215.045 50.504 215.034 50.728V56.84C215.034 57.9707 215.311 58.8667 215.866 59.528C216.421 60.1893 217.183 60.52 218.154 60.52C219.125 60.52 219.893 60.2107 220.458 59.592C221.023 58.9627 221.311 58.1147 221.322 57.048V50.728C221.322 50.504 221.237 50.3227 221.066 50.184C220.906 50.0347 220.709 49.96 220.474 49.96H220.218V49.8H223.562V49.96ZM224.802 60.84C225.079 60.84 225.314 60.744 225.506 60.552C225.709 60.3493 225.815 60.1093 225.826 59.832V50.952C225.815 50.6747 225.709 50.44 225.506 50.248C225.314 50.056 225.079 49.96 224.802 49.96H224.594V49.8H229.458L229.442 49.96H229.25C228.973 49.96 228.733 50.056 228.53 50.248C228.327 50.44 228.226 50.6747 228.226 50.952V59.832C228.226 60.1093 228.327 60.3493 228.53 60.552C228.733 60.744 228.973 60.84 229.25 60.84H229.442L229.458 61H224.594V60.84H224.802ZM230.894 59.512C230.894 58.744 231.059 58.088 231.39 57.544H231.534C231.523 57.6293 231.518 57.7147 231.518 57.8C231.518 58.536 231.779 59.1813 232.302 59.736C232.835 60.28 233.56 60.552 234.478 60.552C235.192 60.552 235.747 60.3813 236.142 60.04C236.547 59.6987 236.75 59.2667 236.75 58.744C236.75 58.1147 236.323 57.5653 235.47 57.096L232.686 55.256C232.131 54.936 231.731 54.552 231.486 54.104C231.251 53.6453 231.134 53.1813 231.134 52.712C231.134 51.7093 231.448 50.936 232.078 50.392C232.718 49.848 233.534 49.576 234.526 49.576C235.112 49.576 235.838 49.6293 236.702 49.736H237.71L237.502 52.088H237.342C237.342 51.5333 237.134 51.0907 236.718 50.76C236.312 50.4187 235.768 50.248 235.086 50.248C234.254 50.248 233.651 50.504 233.278 51.016C233.086 51.2613 232.99 51.5387 232.99 51.848C232.99 52.36 233.363 52.8347 234.11 53.272L237.166 55.256C238.126 55.8107 238.606 56.6267 238.606 57.704C238.606 58.8453 238.216 59.72 237.438 60.328C236.67 60.9253 235.646 61.224 234.366 61.224C233.64 61.224 232.968 61.1387 232.35 60.968C231.742 60.7867 231.294 60.5467 231.006 60.248C230.931 60.0453 230.894 59.8 230.894 59.512ZM240.13 60.84C240.407 60.84 240.642 60.744 240.834 60.552C241.037 60.3493 241.143 60.1093 241.154 59.832V50.952C241.143 50.6747 241.037 50.44 240.834 50.248C240.642 50.056 240.407 49.96 240.13 49.96H239.922V49.8H244.786L244.77 49.96H244.578C244.301 49.96 244.061 50.056 243.858 50.248C243.655 50.44 243.554 50.6747 243.554 50.952V59.832C243.554 60.1093 243.655 60.3493 243.858 60.552C244.061 60.744 244.301 60.84 244.578 60.84H244.77L244.786 61H239.922V60.84H240.13ZM258.494 49.96C258.227 49.96 257.998 50.056 257.806 50.248C257.614 50.4293 257.513 50.6533 257.502 50.92V59.176C257.502 59.8907 257.55 60.4933 257.646 60.984L257.694 61.224H257.55L249.47 53.528V59.88C249.47 60.1467 249.566 60.376 249.758 60.568C249.95 60.7493 250.179 60.84 250.446 60.84H250.75V61H245.902V60.84H246.19C246.467 60.84 246.702 60.7493 246.894 60.568C247.086 60.376 247.182 60.1413 247.182 59.864V51.56C247.182 50.856 247.134 50.2693 247.038 49.8L247.006 49.56H247.15L255.23 57.256V50.936C255.219 50.6587 255.118 50.4293 254.926 50.248C254.734 50.056 254.505 49.96 254.238 49.96H253.95V49.8H258.798V49.96H258.494ZM259.896 60.84C260.173 60.84 260.408 60.744 260.6 60.552C260.802 60.3493 260.909 60.1093 260.92 59.832V50.92C260.888 50.5467 260.712 50.2693 260.392 50.088C260.232 50.0027 260.066 49.96 259.896 49.96H259.688V49.8H265.816C266.146 49.8 266.509 49.768 266.904 49.704C267.298 49.64 267.576 49.576 267.736 49.512V52.312H267.576V52.12C267.576 51.64 267.432 51.256 267.144 50.968C266.866 50.6693 266.488 50.5093 266.008 50.488H263.32V55.144H265.432C265.826 55.1333 266.152 55 266.408 54.744C266.664 54.4773 266.792 54.152 266.792 53.768V53.624H266.952V57.32H266.792V57.192C266.792 56.6587 266.578 56.264 266.152 56.008C265.938 55.8907 265.704 55.8267 265.448 55.816H263.32V60.312H265.416C266.194 60.312 266.845 60.088 267.368 59.64C267.901 59.192 268.296 58.5573 268.552 57.736H268.712L267.976 61H259.688V60.84H259.896Z" fill="white"/>
<path d="M171.813 37.0731V19.4046C170.242 19.2229 168.909 18.5524 167.815 17.3934C166.722 16.2343 166.175 14.8143 166.175 13.1332V0H167.87V13.1332H171.813V0H173.508V13.1332H177.425V0H179.12V13.1332C179.12 14.8143 178.573 16.2343 177.48 17.3934C176.386 18.5524 175.062 19.2229 173.508 19.4046V37.0731H171.813ZM190.525 37.0731V21.4634H185.683V8.39267C185.683 6.27224 186.256 4.42463 187.402 2.8499C188.548 1.27516 190.154 0.350201 192.22 0.0750202V37.0731H190.525Z" fill="white"/>
</svg>
